<?xml version="1.0" encoding="UTF-8" standalone="no"?>
<!DOCTYPE svg PUBLIC "-//W3C//DTD SVG 1.1//EN" "http://www.w3.org/Graphics/SVG/1.1/DTD/svg11.dtd">
<svg width="100%" height="100%" viewBox="0 0 100 100" version="1.1" xmlns="http://www.w3.org/2000/svg" xmlns:xlink="http://www.w3.org/1999/xlink" xml:space="preserve" xmlns:serif="http://www.serif.com/" style="fill-rule:evenodd;clip-rule:evenodd;stroke-linejoin:round;stroke-miterlimit:2;">
    <g transform="matrix(0.940752,0,0,1.56098,-381.166,-981.824)">
        <g transform="matrix(0.904192,0,0,0.252411,443.265,805.491)">
            <g>
                <path d="M33.7,-589.7C31.5,-589.7 29.7,-593.5 29.7,-598.3L29.7,-648.5C29.7,-665.6 22.5,-679.6 13.7,-679.6C4.9,-679.6 -2.3,-665.6 -2.3,-648.5C-2.3,-643.7 -4.1,-639.9 -6.3,-639.9C-8.5,-639.9 -10.3,-643.7 -10.3,-648.5C-10.3,-675.1 0.4,-696.8 13.6,-696.8C26.8,-696.8 37.6,-675.1 37.6,-648.5L37.6,-598.3C37.7,-593.5 35.9,-589.7 33.7,-589.7Z" style="fill:rgb(255,172,1);fill-rule:nonzero;"/>
            </g>
        </g>
        <g transform="matrix(0.904192,0,0,0.545121,443.265,960.299)">
            <circle cx="15.7" cy="-528.8" r="37.9" style="fill:rgb(231,236,237);"/>
        </g>
        <g transform="matrix(0.904192,0,0,0.252411,443.265,805.491)">
            <g>
                <path d="M53.7,-528.8C53.7,-574 36.7,-610.7 15.8,-610.7L15.8,-447C36.7,-446.9 53.7,-483.6 53.7,-528.8Z" style="fill:rgb(199,202,199);fill-rule:nonzero;"/>
            </g>
        </g>
        <g transform="matrix(0.904192,0,0,0.252411,443.265,805.491)">
            <g>
                <path d="M15.7,-507.2C12.4,-507.2 9.7,-513 9.7,-520.1L9.7,-546C9.7,-553.1 12.4,-558.9 15.7,-558.9C19,-558.9 21.7,-553.1 21.7,-546L21.7,-520.2C21.7,-513 19,-507.2 15.7,-507.2Z" style="fill:rgb(66,74,96);fill-rule:nonzero;"/>
            </g>
        </g>
    </g>
</svg>
