<?xml version="1.0" encoding="UTF-8" standalone="no"?>
<!DOCTYPE svg PUBLIC "-//W3C//DTD SVG 1.1//EN" "http://www.w3.org/Graphics/SVG/1.1/DTD/svg11.dtd">
<svg width="100%" height="100%" viewBox="0 0 50 50" version="1.1" xmlns="http://www.w3.org/2000/svg" xmlns:xlink="http://www.w3.org/1999/xlink" xml:space="preserve" xmlns:serif="http://www.serif.com/" style="fill-rule:evenodd;clip-rule:evenodd;stroke-linejoin:round;stroke-miterlimit:2;">
    <g transform="matrix(0.130504,0,0,0.129827,0.0709055,0.0784456)">
        <path d="M382.531,186.823C382.531,289.679 298.488,373.198 194.789,373.198C161.906,373.198 130.938,364.718 104.031,350.023L0,382.999L33.949,282.968C16.801,254.918 6.934,222.003 6.934,186.839C6.934,83.941 91.012,0.468 194.789,0.468C298.488,0.468 382.531,83.941 382.531,186.823ZM194.789,30.148C107.746,30.148 36.852,100.39 36.852,186.839C36.852,221.171 48.039,252.925 66.91,278.745L47.242,336.777L107.922,317.605C132.82,333.988 162.688,343.441 194.789,343.441C281.766,343.441 352.645,273.167 352.645,186.714C352.645,100.405 281.766,30.148 194.789,30.148ZM289.543,229.765C288.43,227.898 285.367,226.769 280.828,224.312C276.094,222.034 253.555,211.116 249.219,209.616C245.094,208.085 242.031,207.339 238.973,211.878C235.766,216.39 227.047,226.784 224.387,229.765C221.551,232.792 218.902,233.175 214.344,230.909C209.852,228.663 194.934,223.82 177.383,208.198C163.738,196.163 154.445,181.23 151.785,176.593C149.043,171.988 151.469,169.53 153.762,167.284C155.914,165.21 158.387,161.898 160.664,159.249C163.039,156.62 163.789,154.741 165.301,151.71C166.832,148.589 166.051,145.96 164.922,143.601C163.789,141.32 154.512,118.894 150.719,109.73C146.844,100.597 143.086,102.113 140.422,102.113C137.648,102.113 134.652,101.73 131.527,101.73C128.5,101.73 123.496,102.843 119.223,107.484C115.062,112.007 103.125,123.054 103.125,145.562C103.125,168.003 119.605,189.808 121.965,192.804C124.262,195.831 153.762,243.359 200.605,261.659C247.387,279.956 247.387,273.913 255.898,273.152C264.203,272.386 283.156,262.058 286.949,251.472C290.676,240.714 290.676,231.659 289.543,229.765Z" style="fill:rgb(87,161,28);fill-rule:nonzero;"/>
    </g>
</svg>
