<?xml version="1.0" encoding="UTF-8" standalone="no"?>
<!DOCTYPE svg PUBLIC "-//W3C//DTD SVG 1.1//EN" "http://www.w3.org/Graphics/SVG/1.1/DTD/svg11.dtd">
<svg width="100%" height="100%" viewBox="0 0 300 100" version="1.1" xmlns="http://www.w3.org/2000/svg" xmlns:xlink="http://www.w3.org/1999/xlink" xml:space="preserve" xmlns:serif="http://www.serif.com/" style="fill-rule:evenodd;clip-rule:evenodd;stroke-linejoin:round;stroke-miterlimit:2;">
    <g transform="matrix(0.220346,0,0,0.220346,-21.7727,-110.724)">
        <g transform="matrix(405.644,0,0,405.644,498.163,815.427)">
            <path d="M0.123,-0.492L0,-0.492C0.025,-0.55 0.025,-0.609 0,-0.667L0.466,-0.667L0.466,-0.492L0.343,-0.492L0.343,0L0.123,0L0.123,-0.492Z" style="fill:rgb(87,161,28);fill-rule:nonzero;"/>
        </g>
        <g transform="matrix(405.644,0,0,405.644,651.427,814.618)">
            <path d="M0.233,-0.667L0.393,-0.667L0.646,0L0.436,0L0.414,-0.06L0.212,-0.06L0.19,0L-0.02,0L0.233,-0.667ZM0.358,-0.207L0.313,-0.324L0.268,-0.207L0.358,-0.207Z" style="fill:rgb(87,161,28);fill-rule:nonzero;"/>
        </g>
        <g transform="matrix(400.752,0,0,400.752,129.048,812.953)">
            <path d="M0.233,-0.667L0.393,-0.667L0.646,0L0.436,0L0.414,-0.06L0.212,-0.06L0.19,0L-0.02,0L0.233,-0.667ZM0.358,-0.207L0.313,-0.324L0.268,-0.207L0.358,-0.207Z" style="fill:rgb(87,161,28);fill-rule:nonzero;"/>
        </g>
        <g transform="matrix(405.644,0,0,405.644,849.457,814.157)">
            <path d="M-0.02,-0.667L0.206,-0.667L0.283,-0.434L0.36,-0.667L0.506,-0.667L0.583,-0.434L0.66,-0.667L0.886,-0.667L0.666,0L0.5,0L0.433,-0.202L0.366,0L0.2,0L-0.02,-0.667Z" style="fill:rgb(255,172,1);fill-rule:nonzero;"/>
            <clipPath id="_clip1">
                <path d="M-0.02,-0.667L0.206,-0.667L0.283,-0.434L0.36,-0.667L0.506,-0.667L0.583,-0.434L0.66,-0.667L0.886,-0.667L0.666,0L0.5,0L0.433,-0.202L0.366,0L0.2,0L-0.02,-0.667Z" clip-rule="nonzero"/>
            </clipPath>
            <g clip-path="url(#_clip1)">
                <g transform="matrix(0.00665525,-0.0268409,0.027435,0.00680256,0.0200398,0.158061)">
                    <path d="M19.948,39.687C30.946,39.687 39.894,30.739 39.894,19.741L39.894,18.978C39.894,18.929 39.821,13.917 37.212,8.902C36.092,6.751 34.666,4.781 32.974,3.05C31.037,1.069 30.388,0.915 30.235,0.915C30.159,0.982 29.83,1.55 30.845,5.287C31.897,9.155 31.191,12.799 28.747,16.12C28.067,17.043 24.195,20.308 19.526,20.308C16.464,20.308 13.752,18.907 11.465,16.141C10.03,14.406 9.088,10.997 10.064,7.84C10.677,5.856 12.296,3.235 16.533,2.013C16.823,1.93 17.26,1.884 17.762,1.884C21.18,1.884 25.285,3.61 25.608,8.473C25.755,10.72 24.074,14.218 19.992,14.59C18.903,14.688 17.057,14.259 15.901,12.775C15.28,11.979 14.657,10.57 15.209,8.384C15.482,7.296 17.007,6.03 18.563,6.03C19.186,6.03 19.754,6.225 20.253,6.609C20.266,6.619 20.322,6.666 20.334,6.677C20.616,6.878 20.852,7.139 21.009,7.432C21.174,7.74 21.262,8.088 21.262,8.438C21.262,9.67 20.167,10.667 18.956,10.558C18.655,10.537 17.932,10.429 17.322,9.904C17.374,10.064 17.486,10.286 17.716,10.554C18.182,11.1 18.937,11.388 19.958,11.408C20.197,11.398 22.525,11.234 22.573,8.497C22.587,7.731 22.344,5.873 19.812,5.159C19.427,5.05 18.991,4.993 18.549,4.993C17.487,4.993 14.877,5.353 13.597,8.685C13.215,9.679 13.2,11.883 14.363,13.669C15.481,15.387 17.368,16.324 19.972,16.454L20.122,16.458C21.56,16.458 23.863,15.541 25.48,13.79C26.428,12.763 27.516,11.019 27.319,8.546C26.949,3.95 24.436,1.167 19.85,0.274L19.851,0.274C19.846,0.274 19.362,0.207 18.565,0.207C14.991,0.207 6.127,1.49 1.038,13.369C0.353,15.39 0,17.546 0,19.74C0.002,30.74 8.95,39.687 19.948,39.687Z" style="fill:rgb(87,161,28);fill-rule:nonzero;"/>
                </g>
            </g>
        </g>
        <g transform="matrix(405.644,0,0,405.644,1146.05,815.005)">
            <path d="M0.233,-0.667L0.393,-0.667L0.646,0L0.436,0L0.414,-0.06L0.212,-0.06L0.19,0L-0.02,0L0.233,-0.667ZM0.358,-0.207L0.313,-0.324L0.268,-0.207L0.358,-0.207Z" style="fill:rgb(87,161,28);fill-rule:nonzero;"/>
        </g>
        <g transform="matrix(2.24532,0,0,1.97892,-163.12,144.866)">
            <path d="M235.41,243.825C249.473,268.17 256.674,254.686 263.346,277.014C268.667,256.155 285.068,264.682 291.056,243.89C295.861,254.177 295.851,268.723 289.82,288.595L272.314,332.832C269.438,340.583 258.199,341.132 254.742,332.823L237.107,288.444C229.524,268.167 230.143,256.671 235.41,243.825ZM265.318,319.073C266.599,318.714 268.618,317.897 271.278,314.095C275.742,307.716 287.507,288.041 287.209,287.588C283.103,291.452 274.495,301.153 270.67,305.77C276.449,295.605 282.174,288.639 287.554,278.736C282.534,282.544 276.789,289.028 270.42,299.457C273.123,294.638 279.659,280.329 287.477,260.798C287.477,260.798 273.421,279.575 270.126,287.007C267.037,293.976 264.261,304.376 263.565,311.847C262.891,304.299 260.099,294.021 256.99,287.007C253.695,279.575 239.638,260.798 239.638,260.798C244.754,273.577 249.32,284.12 252.623,291.232C254.369,294.99 255.761,297.791 256.696,299.457C250.326,289.028 244.581,282.544 239.562,278.736C244.942,288.639 250.666,295.605 256.446,305.77C252.621,301.153 244.012,291.452 239.907,287.588C239.609,288.041 251.374,307.716 255.837,314.095C258.511,317.916 260.536,318.591 261.815,318.929L256.746,327.642L256.765,327.642L256.746,327.663L259.781,327.642L263.483,320.261L267.204,327.663L270.239,327.663L270.218,327.642L270.239,327.642L265.318,319.073Z" style="fill:rgb(87,161,28);"/>
        </g>
        <g transform="matrix(2.92184,0,0,2.98936,370.902,524.352)">
            <path d="M19.948,39.687C30.946,39.687 39.894,30.739 39.894,19.741L39.894,18.978C39.894,18.929 39.821,13.917 37.212,8.902C36.092,6.751 34.666,4.781 32.974,3.05C31.037,1.069 30.388,0.915 30.235,0.915C30.159,0.982 29.83,1.55 30.845,5.287C31.897,9.155 31.191,12.799 28.747,16.12C28.067,17.043 24.195,20.308 19.526,20.308C16.464,20.308 13.752,18.907 11.465,16.141C10.03,14.406 9.088,10.997 10.064,7.84C10.677,5.856 12.296,3.235 16.533,2.013C16.823,1.93 17.26,1.884 17.762,1.884C21.18,1.884 25.285,3.61 25.608,8.473C25.755,10.72 24.074,14.218 19.992,14.59C18.903,14.688 17.057,14.259 15.901,12.775C15.28,11.979 14.657,10.57 15.209,8.384C15.482,7.296 17.007,6.03 18.563,6.03C19.186,6.03 19.754,6.225 20.253,6.609C20.266,6.619 20.322,6.666 20.334,6.677C20.616,6.878 20.852,7.139 21.009,7.432C21.174,7.74 21.262,8.088 21.262,8.438C21.262,9.67 20.167,10.667 18.956,10.558C18.655,10.537 17.932,10.429 17.322,9.904C17.374,10.064 17.486,10.286 17.716,10.554C18.182,11.1 18.937,11.388 19.958,11.408C20.197,11.398 22.525,11.234 22.573,8.497C22.587,7.731 22.344,5.873 19.812,5.159C19.427,5.05 18.991,4.993 18.549,4.993C17.487,4.993 14.877,5.353 13.597,8.685C13.215,9.679 13.2,11.883 14.363,13.669C15.481,15.387 17.368,16.324 19.972,16.454L20.122,16.458C21.56,16.458 23.863,15.541 25.48,13.79C26.428,12.763 27.516,11.019 27.319,8.546C26.949,3.95 24.436,1.167 19.85,0.274L19.851,0.274C19.846,0.274 19.362,0.207 18.565,0.207C14.991,0.207 6.127,1.49 1.038,13.369C0.353,15.39 0,17.546 0,19.74C0.002,30.74 8.95,39.687 19.948,39.687Z" style="fill:rgb(255,172,1);fill-rule:nonzero;"/>
        </g>
        <g transform="matrix(0.988551,0,4.44558e-19,0.988551,-5084.25,-813.318)">
            <circle cx="6192.46" cy="1725.48" r="12.017" style="fill:rgb(255,172,0);"/>
        </g>
        <g transform="matrix(0.988551,0,4.44558e-19,0.988551,-5426.17,-813.318)">
            <circle cx="6192.46" cy="1725.48" r="12.017" style="fill:rgb(255,172,0);"/>
        </g>
        <g transform="matrix(2.03764,0,0,2.03764,-685.726,-7663.21)">
            <text x="605.329px" y="4209.93px" style="font-family:'ArialMT', 'Arial', sans-serif;font-size:43.709px;fill:rgb(87,161,28);">T<tspan x="634.777px " y="4209.93px ">u</tspan></text>
        </g>
        <g transform="matrix(2.03764,0,0,2.03764,-493.657,-7663.21)">
            <text x="605.329px" y="4209.93px" style="font-family:'ArialMT', 'Arial', sans-serif;font-size:43.709px;fill:rgb(87,161,28);">m<tspan x="646.11px 674.79px 688.871px 717.551px " y="4209.93px 4209.93px 4209.93px 4209.93px ">ejor</tspan></text>
        </g>
        <g transform="matrix(2.03764,0,0,2.03764,-157.389,-7663.21)">
            <text x="605.329px" y="4209.93px" style="font-family:'ArialMT', 'Arial', sans-serif;font-size:43.709px;fill:rgb(87,161,28);">v<tspan x="631.554px 660.234px 679.161px 705.386px 719.468px 748.148px " y="4209.93px 4209.93px 4209.93px 4209.93px 4209.93px 4209.93px ">ersión</tspan></text>
        </g>
    </g>
</svg>
