<?xml version="1.0" encoding="utf-8"?>
<!-- Generator: Adobe Illustrator 24.0.0, SVG Export Plug-In . SVG Version: 6.00 Build 0)  -->
<svg version="1.1" id="Capa_1" xmlns="http://www.w3.org/2000/svg" xmlns:xlink="http://www.w3.org/1999/xlink" x="0px" y="0px"
	 viewBox="0 0 100 100" style="enable-background:new 0 0 100 100;" xml:space="preserve">
<style type="text/css">
	.st0{fill:#FFAC01;}
	.st1{fill-rule:evenodd;clip-rule:evenodd;fill:#E7ECED;}
	.st2{fill:#C7CAC7;}
	.st3{fill:#424A60;}
</style>
<g transform="matrix(0.940752,0,0,1.56098,-381.166,-981.824)">
	<g transform="matrix(0.904192,0,0,0.252411,443.265,805.491)">
		<g>
			<path class="st0" d="M33.7-589.7c-2.2,0-4-3.8-4-8.6v-50.2c0-17.1-7.2-31.1-16-31.1c-8.8,0-16,14-16,31.1c0,4.8-1.8,8.6-4,8.6
				s-4-3.8-4-8.6c0-26.6,10.7-48.3,23.9-48.3c13.2,0,24,21.7,24,48.3v50.2C37.7-593.5,35.9-589.7,33.7-589.7z"/>
		</g>
	</g>
	<g transform="matrix(0.904192,0,0,0.252411,443.265,805.491)">
		<g>
			<circle class="st1" cx="15.7" cy="-528.8" r="37.9"/>
		</g>
	</g>
	<g transform="matrix(0.904192,0,0,0.252411,443.265,805.491)">
		<g>
			<path class="st2" d="M53.7-528.8c0-45.2-17-81.9-37.9-81.9v163.7C36.7-446.9,53.7-483.6,53.7-528.8z"/>
		</g>
	</g>
	<g transform="matrix(0.904192,0,0,0.252411,443.265,805.491)">
		<g>
			<path class="st3" d="M15.7-507.2c-3.3,0-6-5.8-6-12.9V-546c0-7.1,2.7-12.9,6-12.9s6,5.8,6,12.9v25.8
				C21.7-513,19-507.2,15.7-507.2z"/>
		</g>
	</g>
</g>
</svg>
