<?xml version="1.0" encoding="utf-8"?>
<!-- Generator: Adobe Illustrator 24.0.0, SVG Export Plug-In . SVG Version: 6.00 Build 0)  -->
<svg version="1.1" id="Capa_1" xmlns="http://www.w3.org/2000/svg" xmlns:xlink="http://www.w3.org/1999/xlink" x="0px" y="0px"
	 viewBox="0 0 100 100" style="enable-background:new 0 0 100 100;" xml:space="preserve">
<style type="text/css">
	.st0{fill:#FFAC01;}
</style>
<g transform="matrix(0.866632,0,0,0.208626,270.169,371.691)">
	<path class="st0" d="M-254.5-1301.5c31.5,0,57.1-108.8,57.1-242.6v-9.3c0-0.6-0.2-61.6-7.7-122.5c-3.2-26.2-7.3-50.1-12.1-71.2
		c-5.5-24.1-7.4-26-7.8-26c-0.2,0.8-1.2,7.7,1.7,53.2c3,47,1,91.4-6,131.7c-1.9,11.2-13,50.9-26.4,50.9c-8.8,0-16.5-17-23.1-50.7
		c-4.1-21.1-6.8-62.6-4-101c1.8-24.1,6.4-56,18.5-70.9c0.8-1,2.1-1.6,3.5-1.6c9.8,0,21.5,21,22.5,80.1c0.4,27.3-4.4,69.9-16.1,74.4
		c-3.1,1.2-8.4-4-11.7-22.1c-1.8-9.7-3.6-26.8-2-53.4c0.8-13.2,5.1-28.6,9.6-28.6c1.8,0,3.4,2.4,4.8,7c0,0.1,0.2,0.7,0.2,0.8
		c0.8,2.4,1.5,5.6,1.9,9.2c0.5,3.7,0.7,8,0.7,12.2c0,15-3.1,27.1-6.6,25.8c-0.9-0.3-2.9-1.6-4.7-8c0.1,1.9,0.5,4.6,1.1,7.9
		c1.3,6.6,3.5,10.1,6.4,10.4c0.7-0.1,7.3-2.1,7.5-35.4c0-9.3-0.7-31.9-7.9-40.6c-1.1-1.3-2.3-2-3.6-2c-3,0-10.5,4.4-14.2,44.9
		c-1.1,12.1-1.1,38.9,2.2,60.6c3.2,20.9,8.6,32.3,16.1,33.9l0.4,0c4.1,0,10.7-11.2,15.3-32.4c2.7-12.5,5.8-33.7,5.3-63.8
		c-1.1-55.9-8.3-89.7-21.4-100.6h0c0,0-1.4-0.8-3.7-0.8c-10.2,0-35.6,15.6-50.2,160.1c-2,24.6-3,50.8-3,77.5
		C-311.6-1410.3-286-1301.5-254.5-1301.5z"/>
</g>
</svg>
