<?xml version="1.0" encoding="utf-8"?>
<!-- Generator: Adobe Illustrator 24.0.0, SVG Export Plug-In . SVG Version: 6.00 Build 0)  -->
<svg version="1.1" id="Capa_1" xmlns="http://www.w3.org/2000/svg" xmlns:xlink="http://www.w3.org/1999/xlink" x="0px" y="0px"
	 viewBox="0 0 100 100" style="enable-background:new 0 0 100 100;" xml:space="preserve">
<style type="text/css">
	.st0{fill:#6CA93A;}
</style>
<g>
	<g transform="matrix(5.05943e-15,-13.8589,-84.5362,-8.68222e-16,1778.88,2918.86)">
		<path class="st0" d="M210.6,20.5c0-0.3-1.6-0.6-3.6-0.6h-0.1c0,0-0.9,0-1.8,0.1c-0.4,0-0.8,0.1-1.1,0.1c-0.4,0.1-0.4,0.1-0.4,0.1
			c0,0,0.1,0,0.8,0c0.7,0,1.4,0,2,0.1c0.2,0,0.8,0.1,0.8,0.3c0,0.1-0.3,0.2-0.8,0.2c-0.3,0-0.9,0.1-1.5,0c-0.4,0-0.8-0.1-1.1-0.2
			c0,0,0,0,0,0c0-0.1,0.3-0.2,1.2-0.2c0.4,0,1,0,1.1,0.2c0,0-0.1,0.1-0.3,0.1c-0.1,0-0.4,0-0.8,0c-0.2,0-0.4-0.1-0.4-0.1
			c0,0,0,0,0.1,0c0,0,0,0,0,0c0,0,0.1,0,0.1,0c0.1,0,0.1,0,0.2,0c0.2,0,0.4,0,0.4,0.1c0,0,0,0-0.1,0c0,0,0.1,0,0.1,0
			c0.1,0,0.2,0,0.2-0.1c0,0,0-0.1-0.5-0.1c-0.1,0-0.5,0-0.6,0.1c0,0,0,0,0,0c0,0,0.1,0.1,0.7,0.1c0.2,0,0.6,0,0.9,0
			c0.3,0,0.5-0.1,0.5-0.2l0,0c0,0-0.2-0.1-0.5-0.2c-0.2,0-0.5-0.1-1-0.1c-0.8,0-1.3,0.1-1.5,0.2v0c0,0,0,0,0,0
			c0,0.1,0.2,0.4,2.4,0.5c0.4,0,0.8,0,1.2,0C209,21,210.6,20.8,210.6,20.5z"/>
	</g>
</g>
</svg>
