<?xml version="1.0" encoding="UTF-8" standalone="no"?>
<!DOCTYPE svg PUBLIC "-//W3C//DTD SVG 1.1//EN" "http://www.w3.org/Graphics/SVG/1.1/DTD/svg11.dtd">
<svg width="100%" height="100%" viewBox="0 0 50 50" version="1.1" xmlns="http://www.w3.org/2000/svg" xmlns:xlink="http://www.w3.org/1999/xlink" xml:space="preserve" xmlns:serif="http://www.serif.com/" style="fill-rule:evenodd;clip-rule:evenodd;stroke-linejoin:round;stroke-miterlimit:2;">
    <g transform="matrix(0.630041,0,0,0.623593,-712.492,-2180.53)">
        <path d="M1170.39,3497.55C1148.66,3497.55 1130.98,3515.23 1130.98,3536.96C1130.98,3558.7 1148.66,3576.38 1170.39,3576.38C1192.13,3576.38 1209.81,3558.7 1209.81,3536.96C1209.81,3515.23 1192.13,3497.55 1170.39,3497.55ZM1184.14,3514.55L1156.64,3514.55C1151.86,3514.55 1147.98,3518.43 1147.98,3523.21L1147.98,3550.72C1147.98,3555.49 1151.86,3559.38 1156.64,3559.38L1184.14,3559.38C1188.93,3559.38 1192.81,3555.49 1192.81,3550.72L1192.81,3523.21C1192.81,3518.43 1188.93,3514.55 1184.14,3514.55ZM1159.04,3532.36C1158.46,3533.78 1158.14,3535.34 1158.14,3536.96C1158.14,3543.72 1163.63,3549.22 1170.39,3549.22C1177.16,3549.22 1182.65,3543.72 1182.65,3536.96C1182.65,3535.34 1182.32,3533.78 1181.75,3532.36L1188.44,3532.36L1188.44,3550.72C1188.44,3553.09 1186.52,3555.01 1184.14,3555.01L1156.64,3555.01C1154.27,3555.01 1152.35,3553.09 1152.35,3550.72L1152.35,3532.36L1159.04,3532.36ZM1170.39,3544.85C1174.74,3544.85 1178.28,3541.31 1178.28,3536.96C1178.28,3535.24 1177.73,3533.66 1176.8,3532.36C1175.36,3530.38 1173.03,3529.07 1170.39,3529.07C1167.76,3529.07 1165.43,3530.37 1164,3532.36C1163.06,3533.66 1162.51,3535.24 1162.5,3536.96C1162.5,3541.31 1166.04,3544.85 1170.39,3544.85ZM1187.62,3519.71L1187.62,3527.31L1180.05,3527.33L1180.02,3519.73L1186.63,3519.71L1187.62,3519.71Z" style="fill:rgb(87,161,28);"/>
    </g>
</svg>
